<svg preserveAspectRatio="none" overflow="visible" style="display: block;" width="20.4501" height="20.4501" viewBox="0 0 20.4501 20.4501" fill="none" xmlns="http://www.w3.org/2000/svg">
<g id="ArrowDown">
<path id="Vector" d="M16.6551 12.1819L10.9035 17.9335C10.8145 18.0229 10.7087 18.0938 10.5921 18.1422C10.4756 18.1906 10.3507 18.2155 10.2245 18.2155C10.0984 18.2155 9.97344 18.1906 9.85692 18.1422C9.7404 18.0938 9.63458 18.0229 9.54552 17.9335L3.79393 12.1819C3.61385 12.0019 3.51268 11.7576 3.51268 11.5029C3.51268 11.2483 3.61385 11.004 3.79393 10.8239C3.97401 10.6438 4.21826 10.5427 4.47294 10.5427C4.72761 10.5427 4.97186 10.6438 5.15194 10.8239L9.26673 14.9387V3.19588C9.26673 2.94165 9.36772 2.69782 9.5475 2.51805C9.72727 2.33828 9.97109 2.23728 10.2253 2.23728C10.4796 2.23728 10.7234 2.33828 10.9032 2.51805C11.0829 2.69782 11.1839 2.94165 11.1839 3.19588V14.9387L15.2987 10.8231C15.4788 10.643 15.723 10.5419 15.9777 10.5419C16.2324 10.5419 16.4766 10.643 16.6567 10.8231C16.8368 11.0032 16.938 11.2475 16.938 11.5021C16.938 11.7568 16.8368 12.0011 16.6567 12.1811L16.6551 12.1819Z" fill="black"/>
</g>
</svg>
