<svg preserveAspectRatio="none" overflow="visible" style="display: block;" width="15.4868" height="15.4845" viewBox="0 0 15.4868 15.4845" fill="none" xmlns="http://www.w3.org/2000/svg">
<g id="elements">
<ellipse id="Ellipse 1581" cx="10.2651" cy="7.02222" rx="4.68155" ry="1.44048" stroke="white" stroke-width="1.08036"/>
<path id="Ellipse 1582" d="M14.9466 10.2625C14.9466 11.058 12.8506 11.703 10.2651 11.703C7.67954 11.703 5.58354 11.058 5.58354 10.2625" stroke="white" stroke-width="1.08036"/>
<path id="Ellipse 1583" d="M14.9466 7.02172V13.3598C14.9466 14.2349 12.8506 14.9443 10.2651 14.9443C7.67954 14.9443 5.58354 14.2349 5.58354 13.3598V7.02172" stroke="white" stroke-width="1.08036"/>
<ellipse id="Ellipse 1584" cx="5.22187" cy="1.98065" rx="4.68155" ry="1.44048" stroke="white" stroke-width="1.08036"/>
<path id="Vector" d="M3.42128 7.02222C2.05872 6.85641 0.806749 6.42769 0.540323 5.58175M3.42128 10.6234C2.05872 10.4576 0.806749 10.0289 0.540323 9.18294" stroke="white" stroke-width="1.08036" stroke-linecap="round"/>
<path id="Vector_2" d="M3.42128 14.2242C2.05872 14.0584 0.806749 13.6297 0.540323 12.7837L0.540323 1.98016" stroke="white" stroke-width="1.08036" stroke-linecap="round"/>
<path id="Ellipse 1590" d="M9.90512 3.42063V1.98016" stroke="white" stroke-width="1.08036" stroke-linecap="round"/>
</g>
</svg>
